<svg width="251" height="192" viewBox="0 0 251 192" fill="none" xmlns="http://www.w3.org/2000/svg">
<path d="M92.5944 91.4615C93.5517 90.9215 94.1926 89.5344 94.3296 89.0777C95.0603 89.0777 99.2208 88.688 101.462 89.2423C101.913 89.3539 101.859 89.9951 101.813 90.535L101.812 90.5527C101.718 91.653 96.5524 95.1583 95.1138 96.6654C94.5615 97.244 95.7952 98.3111 98.7524 98.3111C100.139 98.3111 100.202 98.183 100.371 97.4658C100.522 96.8269 102.89 96.8553 107.503 94.6504C107.977 94.424 100.562 96.143 101.278 94.6504C102.427 92.2553 105.121 89.6112 108.113 89.1696C110.26 88.8526 109.694 88.676 109.694 87.6346C109.694 86.7467 110.073 86.0012 107.277 86.1049C102.879 86.268 105.43 87.6823 102.675 87.2433C100.149 86.8408 91.8791 87.0118 90.8515 87.6968C89.8239 88.3819 91.5972 92.024 92.5944 91.4615Z" fill="black"/>
<path d="M117.258 88.6509C118.509 88.5215 119.317 89.2181 118.088 90.0588C116.859 90.8995 122.422 88.6509 129.224 89.8344C129.884 89.6165 131.225 88.5933 135.474 88.9315C137.219 89.0705 138.345 89.896 137.957 90.3648C137.231 91.2418 139.871 89.6256 140.5 89.071C144.577 85.4774 146.539 82.7022 146.539 79.6744C146.539 77.0841 145.324 75.8635 142.596 73.8548C138.561 70.8844 138.417 69.911 138.417 65.3622C138.417 61.475 139.491 58.2026 141.933 54.6397C143.789 51.9318 144.987 50.1286 146.94 48.7041C148.531 47.5442 151.897 47.3612 150.866 47.6272C148.752 48.1731 148.524 48.5286 145.631 52.2448C143.106 55.4885 141.387 61.324 141.387 64.5765C141.387 66.0546 141.674 70.048 144.111 72.3894C145.525 73.7479 147.343 74.446 148.039 76.2537C148.542 77.5616 148.424 78.1601 148.424 80.0458C148.424 83.6391 141.93 92.6361 140.321 93.8494C139.774 94.2623 138.998 95.3987 138.599 95.7665C138.201 96.1343 136.453 96.4083 135.02 96.0589C134.681 95.9762 133.016 95.7665 134.239 94.6715C135.032 93.9611 135.943 94.1931 136.453 92.1762C136.656 91.3757 132.2 90.9759 131.375 92.1762C131.085 92.5977 130.554 93.7276 129.737 94.0708C127.828 94.873 126.068 95.9638 125.297 95.9638C124.442 95.9638 124.065 96.3233 122.976 95.1748C122.57 94.747 123.139 94.3076 124.065 93.514C125.447 92.3283 126.164 91.1081 125.875 91.201C124.637 91.5993 122.222 91.1151 121.328 91.4309C118.628 92.385 117.614 93.5353 115.881 94.6715C114.234 95.7509 113.171 96.9371 112.462 97.0047C111.33 97.1125 109.929 96.7891 109.982 95.5495C110.036 94.3099 115.695 88.8127 117.258 88.6509Z" fill="black"/>
<path fill-rule="evenodd" clip-rule="evenodd" d="M154.997 84.7846C155.978 84.7679 156.752 84.7973 157.354 84.9086C157.957 85.0203 158.428 85.2217 158.759 85.5805C159.089 85.9396 159.234 86.4082 159.292 86.9555C159.349 87.4998 159.324 88.1684 159.276 88.9633C159.206 90.126 158.461 91.1894 157.599 92.0297C156.729 92.8782 155.685 93.5523 154.909 93.936C153.276 94.7432 150.881 95.57 148.074 95.894C147.447 95.9663 146.735 96.0445 146.155 95.9907C145.864 95.9637 145.574 95.9014 145.334 95.7651C145.081 95.6212 144.888 95.3953 144.82 95.0766C144.733 94.6657 144.745 94.2897 144.841 93.9828C144.934 93.6822 145.123 93.4123 145.411 93.2944C145.449 93.2788 145.487 93.2651 145.512 93.2563C145.541 93.2463 145.558 93.2399 145.572 93.2338C145.584 93.2285 145.591 93.2241 145.591 93.2241L145.592 93.2231C145.599 93.2135 145.659 93.1229 145.659 92.7436C145.659 92.256 145.904 91.6711 146.228 91.0981C146.561 90.5102 147.011 89.8784 147.488 89.2817C148.433 88.0987 149.528 86.9956 150.088 86.6196C150.753 86.1722 151.625 85.7227 152.499 85.3813C153.367 85.0423 154.272 84.7969 154.997 84.7846ZM156.934 86.5785C156.578 86.4782 156.027 86.4672 155.198 86.6157C154.941 86.6616 154.77 86.8288 154.554 87.1235C154.359 87.3901 154.104 87.8095 153.708 88.0678C153.174 88.4156 152.713 88.4755 152.432 88.5629C152.29 88.6074 152.17 88.6612 152.049 88.7573C151.924 88.8557 151.781 89.012 151.615 89.2826C151.471 89.517 151.363 89.7491 151.267 89.9741C151.176 90.1878 151.084 90.4273 150.991 90.6225C150.895 90.8245 150.776 91.0304 150.601 91.1948C150.419 91.3661 150.193 91.477 149.91 91.518C149.042 91.6434 148.049 92.0443 147.722 92.9477C147.597 93.2938 147.496 93.5534 147.435 93.768C147.375 93.9823 147.385 94.0619 147.39 94.0815C147.39 94.0815 147.394 94.084 147.396 94.0854C147.415 94.0967 147.46 94.1177 147.553 94.1332C147.746 94.1652 148.057 94.1638 148.542 94.1157C149.655 94.0051 151.644 93.589 153.454 92.8237C154.358 92.4413 155.203 91.9771 155.87 91.4311C156.537 90.8844 157.006 90.2716 157.195 89.5942C157.348 89.0482 157.481 88.5435 157.547 88.0981C157.613 87.6471 157.602 87.3033 157.51 87.059C157.427 86.842 157.268 86.6725 156.934 86.5785Z" fill="black"/>
<path d="M170.943 93.0469C168.989 92.9795 166.32 92.7706 164.984 92.8301C163.2 92.9094 163.438 94.2961 161.614 94.415C159.791 94.5339 159.712 94.2172 159.395 93.5039C159.078 92.7904 159.87 92.2352 161.099 91.6406C162.082 91.1649 164.363 91.4424 165.38 91.6406C165.38 91.6406 170.795 91.6406 172.293 91.6406C173.791 91.6406 172.896 93.1142 170.943 93.0469Z" fill="black"/>
<path d="M180.385 88.6509C181.636 88.5215 182.444 89.2181 181.215 90.0588C179.986 90.8995 185.549 88.6509 192.351 89.8344C193.011 89.6165 194.352 88.5933 198.601 88.9315C200.346 89.0705 201.472 89.896 201.084 90.3648C200.358 91.2418 202.998 89.6256 203.627 89.071C207.704 85.4774 209.666 82.7022 209.666 79.6744C209.666 77.0841 208.451 75.8635 205.722 73.8548C201.688 70.8844 201.544 69.911 201.544 65.3622C201.544 61.475 202.618 58.2026 205.06 54.6397C206.916 51.9318 208.114 50.1286 210.067 48.7041C211.658 47.5442 215.023 47.3612 213.993 47.6272C211.879 48.1731 211.651 48.5286 208.758 52.2448C206.233 55.4885 204.514 61.324 204.514 64.5765C204.514 66.0546 204.801 70.048 207.238 72.3894C208.652 73.7479 210.47 74.446 211.165 76.2537C211.669 77.5616 211.551 78.1601 211.551 80.0458C211.551 83.6391 205.057 92.6361 203.448 93.8494C202.901 94.2623 202.125 95.3987 201.726 95.7665C201.328 96.1343 199.58 96.4083 198.147 96.0589C197.808 95.9762 196.143 95.7665 197.366 94.6715C198.159 93.9611 199.07 94.1931 199.58 92.1762C199.783 91.3757 195.327 90.9759 194.502 92.1762C194.212 92.5977 193.681 93.7276 192.864 94.0708C190.955 94.873 189.195 95.9638 188.424 95.9638C187.569 95.9638 187.191 96.3233 186.103 95.1748C185.697 94.747 186.266 94.3076 187.191 93.514C188.574 92.3283 189.291 91.1081 189.002 91.201C187.764 91.5993 185.349 91.1151 184.455 91.4309C181.755 92.385 180.741 93.5353 179.008 94.6715C177.361 95.7509 176.298 96.9371 175.589 97.0047C174.457 97.1125 173.056 96.7891 173.109 95.5495C173.163 94.3099 178.822 88.8127 180.385 88.6509Z" fill="black"/>
<path fill-rule="evenodd" clip-rule="evenodd" d="M216.56 84.7846C217.541 84.7679 218.316 84.7973 218.918 84.9086C219.521 85.0203 219.992 85.2217 220.322 85.5805C220.652 85.9396 220.798 86.4082 220.855 86.9555C220.912 87.4998 220.887 88.1684 220.84 88.9633C220.77 90.126 220.025 91.1894 219.163 92.0297C218.292 92.8782 217.248 93.5523 216.472 93.936C214.84 94.7432 212.445 95.57 209.637 95.894C209.01 95.9663 208.298 96.0445 207.718 95.9907C207.428 95.9637 207.137 95.9014 206.897 95.7651C206.644 95.6212 206.451 95.3953 206.384 95.0766C206.296 94.6657 206.308 94.2897 206.404 93.9828C206.498 93.6822 206.686 93.4123 206.974 93.2944C207.012 93.2788 207.051 93.2651 207.076 93.2563C207.104 93.2463 207.122 93.2399 207.135 93.2338C207.147 93.2285 207.154 93.2241 207.154 93.2241L207.155 93.2231C207.162 93.2135 207.222 93.1229 207.222 92.7436C207.223 92.256 207.467 91.6711 207.792 91.0981C208.125 90.5102 208.575 89.8784 209.052 89.2817C209.997 88.0987 211.092 86.9956 211.651 86.6196C212.316 86.1722 213.188 85.7227 214.062 85.3813C214.93 85.0423 215.835 84.7969 216.56 84.7846ZM218.498 86.5785C218.141 86.4782 217.59 86.4672 216.761 86.6157C216.505 86.6616 216.334 86.8288 216.118 87.1235C215.923 87.3901 215.668 87.8095 215.271 88.0678C214.737 88.4156 214.277 88.4755 213.996 88.5629C213.853 88.6074 213.733 88.6612 213.612 88.7573C213.488 88.8557 213.345 89.012 213.178 89.2826C213.035 89.517 212.926 89.7491 212.831 89.9741C212.74 90.1878 212.647 90.4273 212.554 90.6225C212.458 90.8245 212.339 91.0304 212.165 91.1948C211.982 91.3661 211.756 91.477 211.473 91.518C210.606 91.6434 209.613 92.0443 209.286 92.9477C209.161 93.2938 209.059 93.5534 208.999 93.768C208.938 93.9823 208.948 94.0619 208.954 94.0815C208.954 94.0815 208.957 94.084 208.96 94.0854C208.978 94.0967 209.024 94.1177 209.117 94.1332C209.309 94.1652 209.62 94.1638 210.105 94.1157C211.218 94.0051 213.208 93.589 215.017 92.8237C215.921 92.4413 216.767 91.9771 217.433 91.4311C218.101 90.8844 218.569 90.2716 218.759 89.5942C218.911 89.0482 219.044 88.5435 219.11 88.0981C219.177 87.6471 219.166 87.3033 219.073 87.059C218.99 86.842 218.831 86.6725 218.498 86.5785Z" fill="black"/>
<path d="M185.812 112.472C187.797 111.78 189.368 111.948 189.093 114.147C188.641 117.761 186.242 117.218 184.198 117.736C183.201 117.989 182.439 117.916 181.087 118.815C180.112 119.463 179.594 120.901 181.377 120.719C186.133 120.234 188.005 121.492 186.419 121.242C185.908 121.162 185.724 121.45 185.275 121.579C184.391 121.832 185.189 122.396 182.853 122.396C181.295 122.396 174.196 121.903 176.779 119.374C177.632 118.539 174.174 117.736 179.726 116.223C180.588 115.988 181.553 114.959 182.439 114.307C183.776 113.324 185.02 112.748 185.812 112.472Z" fill="black"/>
<path d="M199.553 112.025C202.078 110.695 202.537 110.787 202.47 113.246C202.404 115.706 197.614 114.643 192.796 120.045C192.321 120.578 194.073 120.872 195.874 120.701C197.346 120.561 199.776 119.523 199.688 119.694C199.152 120.74 197.566 121.525 195.244 122.128C193.161 122.669 192.927 123.09 190.799 123.223C189.244 123.32 188.66 122.142 189.526 120.61C190.469 118.943 197.027 113.354 199.553 112.025Z" fill="black"/>
<path d="M210.01 113.894C211.26 113.765 212.068 114.461 210.839 115.302C209.61 116.143 215.173 113.894 221.976 115.078C222.635 114.86 223.977 113.836 228.225 114.175C229.97 114.314 231.096 115.139 230.708 115.608C229.983 116.485 232.622 114.869 233.252 114.314C237.329 110.721 239.291 107.945 239.291 104.918C239.291 102.327 238.075 101.107 235.347 99.098C231.313 96.1276 231.169 95.1542 231.169 90.6054C231.169 86.7182 232.242 83.4457 234.684 79.8829C236.541 77.1749 237.738 75.3718 239.692 73.9472C241.283 72.7874 244.648 72.6043 243.618 72.8704C241.503 73.4163 241.276 73.7718 238.383 77.488C235.858 80.7317 234.138 86.5672 234.138 89.8197C234.138 91.2978 234.425 95.2912 236.862 97.6326C238.276 98.9911 240.095 99.6892 240.79 101.497C241.293 102.805 241.175 103.403 241.175 105.289C241.175 108.882 234.682 117.879 233.073 119.093C232.525 119.505 231.749 120.642 231.351 121.01C230.952 121.377 229.205 121.651 227.772 121.302C227.432 121.219 225.768 121.01 226.991 119.915C227.784 119.204 228.695 119.436 229.205 117.419C229.407 116.619 224.951 116.219 224.126 117.419C223.837 117.841 223.305 118.971 222.488 119.314C220.579 120.116 218.819 121.207 218.049 121.207C217.194 121.207 216.816 121.566 215.727 120.418C215.321 119.99 215.89 119.551 216.816 118.757C218.199 117.572 218.916 116.351 218.627 116.444C217.388 116.842 214.973 116.358 214.079 116.674C211.379 117.628 210.366 118.778 208.633 119.915C206.986 120.994 205.923 122.18 205.213 122.248C204.081 122.356 202.68 122.032 202.734 120.793C202.788 119.553 208.447 114.056 210.01 113.894Z" fill="black"/>
<path d="M245.763 117.973C244.448 117.661 241.797 118.477 241.09 118.924C242.72 117.295 247.338 113.525 250.177 113.08C251.125 112.931 251.398 109.872 250.177 109.968C246.974 110.217 241.09 114.641 237.715 118.924C234.34 123.208 238.667 122.343 241.09 122.429C243.513 122.516 245.763 122.17 246.888 121.088C248.013 120.006 247.408 118.362 245.763 117.973Z" fill="black"/>
<path d="M43.3513 91.3713C43.9695 91.2303 47.3628 90.4818 46.4357 90.7946C40.8946 92.6642 28.7992 96.189 17.4734 105.071C8.46893 112.132 7.31307 117.873 5.42123 122.992C4.22485 126.229 7.89607 126.402 10.0981 125.679C21.2857 122.002 29.1034 114.488 32.6868 111.551C44.921 101.523 49.9135 93.5827 55.3679 82.9552C55.6355 82.4338 55.7814 81.8586 55.7815 81.2726C55.7815 80.4557 55.7736 79.2438 55.7736 77.9165C55.7736 76.1462 57.1885 75.8168 59.1051 74.6288C61.25 73.2992 64.1154 71.7391 64.416 69.2336C64.5432 68.1735 64.7694 65.4416 65.0061 64.7235C65.5514 63.0693 67.493 61.1407 69.065 60.7211C70.2614 60.4017 72.035 64.8216 71.413 65.1024C66.7081 67.2266 69.0057 70.5035 65.7648 73.7429C63.0637 76.4429 62.3957 78.0996 61.3226 79.901C54.4963 91.3593 45.8469 104.524 35.4271 112.99C28.8505 118.333 17.4734 125.937 8.91506 128.883C6.48702 129.719 1.80618 129.869 0.351748 127.445C-1.2924 124.704 3.27446 117.941 4.83693 115.367C8.03926 110.092 15.5407 104.284 18.1237 102.229C20.7066 100.175 28.2149 96.6736 32.1479 94.8539C36.081 93.0341 40.0053 92.1345 43.3513 91.3713Z" fill="black"/>
<path d="M81.5114 60.5235C84.0918 59.7414 84.6785 60.7973 84.7177 61.5401C84.938 61.3836 85.9763 62.0572 87.5377 61.5401C89.6251 60.8488 95.5721 52.2328 96.4724 48.0913C97.729 42.3111 95.9197 36.3363 91.2144 32.6043C88.8236 30.7081 85.4463 26.0465 68.1685 26.5491C57.1843 26.8686 47.3825 29.3141 39.4581 31.4797C30.7372 33.863 19.6979 38.8285 13.7286 45.7234C11.5857 48.1986 10.6456 51.295 10.6456 52.1491C10.6456 52.95 9.78353 53.1926 9.78365 52.4613C9.78405 49.8919 9.52464 45.4358 20.8851 37.7288C26.1442 34.161 34.5513 31.0595 43.3523 28.936C53.918 26.3867 64.9895 25.1665 71.0362 25.1665C82.3237 25.1665 87.7874 27.0534 93.0134 31.3215C95.0483 32.9835 97.1895 35.4706 98.1639 39.3734C98.8892 42.2783 98.7778 46.3196 98.5097 49.51C98.0071 55.4912 88.47 63.1875 83.7643 66.288C81.2161 67.7572 77.7082 70.6111 74.7867 70.6111C73.6912 70.6111 73.6757 69.0372 73.7677 68.6742C73.9164 68.0882 74.2783 68.3434 75.5295 67.8351C76.7806 67.3268 78.931 61.3056 81.5114 60.5235Z" fill="black"/>
<path d="M100.134 60.9838C102.12 60.2921 103.691 60.4606 103.416 62.6591C102.963 66.2736 100.565 65.73 98.5212 66.2481C97.5233 66.501 96.7617 66.4281 95.4098 67.3271C94.4352 67.9751 93.9163 69.4135 95.6993 69.2316C100.455 68.7463 102.328 70.0045 100.742 69.7545C100.231 69.674 100.046 69.9624 99.5978 70.091C98.714 70.3443 99.5113 70.9081 97.1759 70.9081C95.6178 70.9081 88.5183 70.4148 91.102 67.8859C91.955 67.051 88.4969 66.2481 94.0486 64.7348C94.9107 64.4998 95.8753 63.4711 96.7617 62.8194C98.0992 61.8361 99.3423 61.2598 100.134 60.9838Z" fill="black"/>
<path d="M113.875 59.6137C116.401 58.2843 116.859 58.3757 116.793 60.8351C116.726 63.2944 111.937 62.2321 107.119 67.6343C106.643 68.1673 108.396 68.4606 110.196 68.2896C111.669 68.1497 114.098 67.1116 114.011 67.283C113.475 68.3293 111.889 69.1143 109.566 69.7173C107.484 70.258 107.249 70.6787 105.122 70.8116C103.567 70.9088 102.983 69.7304 103.849 68.1987C104.792 66.5323 111.349 60.9431 113.875 59.6137Z" fill="black"/>
<path d="M126.086 66.2538C124.771 65.9422 122.12 66.7586 121.413 67.2057C123.043 65.5758 127.661 61.8064 130.5 61.3609C131.449 61.212 131.721 58.1537 130.5 58.2488C127.297 58.4982 121.413 62.9219 118.038 67.2057C114.663 71.4894 118.99 70.624 121.413 70.7105C123.836 70.797 126.086 70.4509 127.212 69.3691C128.337 68.2874 127.731 66.6432 126.086 66.2538Z" fill="black"/>
</svg>
