<svg width="35" height="140" viewBox="0 0 35 140" fill="none" xmlns="http://www.w3.org/2000/svg">
<path d="M0.137834 70.9495C0.523575 69.8611 4.61676 65.4853 6.64128 64.6784C8.6658 63.8716 8.98633 67.1657 8.06675 67.3771C6.28219 67.7874 4.47339 68.7462 4.07596 70.4804C3.6661 72.2689 15.1796 69.6841 18.6008 68.5824C18.8446 68.5039 19.0378 68.329 19.1573 68.1024C19.7038 67.067 20.5163 65.7642 22.0884 64.6792C23.5362 63.6799 25.4656 66.362 25.0648 67.1336C24.664 67.9052 23.1371 66.4075 22.0884 68.7683C20.5799 72.1639 31.9799 69.1806 34.1343 68.5985C34.5124 68.4963 30.0305 71.598 23.0984 71.598C18.0766 71.598 20.0366 69.3102 17.3628 69.7939C16.2697 69.9917 6.96494 73.6019 4.07596 73.3319C1.6527 73.1054 -0.584766 72.9885 0.137834 70.9495Z" fill="black"/>
</svg>
