<svg width="62" height="140" viewBox="0 0 62 140" fill="none" xmlns="http://www.w3.org/2000/svg">
<path d="M6.42524 63.312C7.67562 63.1826 8.48346 63.8792 7.25454 64.7199C6.02563 65.5606 11.5885 63.312 18.3911 64.4955C19.0507 64.2776 19.3003 63.2449 23.5485 63.5831C25.2937 63.722 26.793 63.793 26.4051 64.2617C25.6795 65.1388 28.0297 64.1376 28.6589 63.5831C32.7363 59.9894 36.2471 57.6078 38.6823 55.8086C42.656 52.8728 44.9279 50.8208 45.4732 47.4771C45.7994 45.4769 45.2962 44.656 44.8239 41.3553C44.4637 38.8379 44.2812 34.1122 44.8239 29.2495C45.0119 27.5654 46.4076 26.5923 47.6003 26.046C49.7272 25.0719 52.7203 24.4502 55.1382 24.4502C61.4203 24.4502 61.6115 23.9898 61.6115 25.054C61.6115 25.783 60.5667 25.372 54.7627 25.6793C51.7507 25.8387 48.982 27.1717 48.3441 27.5912C47.55 28.1134 46.8482 28.7857 46.5004 29.7421C44.9982 33.8732 45.7994 38.1751 46.5004 41.1454L46.5105 41.1878C46.9299 42.9648 47.6317 45.9374 46.3596 49.8175C45.3841 52.793 42.9942 54.2349 39.8864 57.0542C38.0598 58.7113 34.0201 61.626 30.2706 64.6957C28.8198 65.8834 29.4215 68.0737 28.1898 68.8778C27.3039 69.4562 27.0725 70.0502 26.6741 70.418C26.2756 70.7858 23.7398 71.2677 22.6273 70.7938C22.306 70.6569 21.2571 70.043 22.0505 69.3326C22.8439 68.6221 22.8745 68.5009 24.5283 66.8277C25.1087 66.2404 21.4118 65.6846 20.7938 66.8277C20.5506 67.2776 19.7178 68.1345 19.4959 68.301C17.4357 69.8461 16.3644 70.418 14.7574 71.1234C13.9748 71.467 12.9445 71.0204 11.8301 70.0935C11.3769 69.7165 12.3057 68.9687 13.2314 68.1751C14.6143 66.9894 14.8611 66.1067 14.572 66.1996C13.3333 66.5978 10.6864 65.9868 9.79241 66.3026C7.09199 67.2566 6.78127 68.1964 5.04789 69.3326C3.40111 70.412 3.31192 70.1494 2.60237 70.217C1.47056 70.3247 -0.309358 70.3962 0.0461385 69.2075C0.354882 68.1751 4.86226 63.4738 6.42524 63.312Z" fill="black"/>
</svg>
